<mxfile host="app.diagrams.net" modified="2022-12-06T15:01:08.254Z" agent="5.0 (Windows NT 10.0; Win64; x64) AppleWebKit/537.36 (KHTML, like Gecko) Chrome/107.0.0.0 Safari/537.36 Edg/107.0.1418.62" etag="u60fK_8-w5NlMN4uJ0x8" version="20.4.0" type="github">
  <diagram id="E7cpf55BVubM4NpJYbA3" name="第 1 页">
    <mxGraphModel dx="1020" dy="869" grid="1" gridSize="10" guides="1" tooltips="1" connect="1" arrows="1" fold="1" page="1" pageScale="1" pageWidth="827" pageHeight="1169" math="0" shadow="0">
      <root>
        <mxCell id="0" />
        <mxCell id="1" parent="0" />
        <mxCell id="7IFiCfjqwei8qDIe7Sz--22" style="edgeStyle=orthogonalEdgeStyle;curved=1;rounded=0;orthogonalLoop=1;jettySize=auto;html=1;exitX=1;exitY=0.5;exitDx=0;exitDy=0;entryX=0;entryY=0;entryDx=0;entryDy=0;" edge="1" parent="1" source="7IFiCfjqwei8qDIe7Sz--3" target="7IFiCfjqwei8qDIe7Sz--20">
          <mxGeometry relative="1" as="geometry" />
        </mxCell>
        <mxCell id="7IFiCfjqwei8qDIe7Sz--23" value="挂失信息" style="edgeLabel;html=1;align=center;verticalAlign=middle;resizable=0;points=[];" vertex="1" connectable="0" parent="7IFiCfjqwei8qDIe7Sz--22">
          <mxGeometry x="0.288" y="7" relative="1" as="geometry">
            <mxPoint as="offset" />
          </mxGeometry>
        </mxCell>
        <mxCell id="7IFiCfjqwei8qDIe7Sz--3" value="学生/教职工" style="rounded=0;whiteSpace=wrap;html=1;" vertex="1" parent="1">
          <mxGeometry x="40" y="140" width="90" height="50" as="geometry" />
        </mxCell>
        <mxCell id="7IFiCfjqwei8qDIe7Sz--34" style="edgeStyle=orthogonalEdgeStyle;curved=1;rounded=0;orthogonalLoop=1;jettySize=auto;html=1;exitX=0.5;exitY=1;exitDx=0;exitDy=0;entryX=0;entryY=0.5;entryDx=0;entryDy=0;" edge="1" parent="1" source="7IFiCfjqwei8qDIe7Sz--4" target="7IFiCfjqwei8qDIe7Sz--33">
          <mxGeometry relative="1" as="geometry" />
        </mxCell>
        <mxCell id="7IFiCfjqwei8qDIe7Sz--36" value="锁定信息" style="edgeLabel;html=1;align=center;verticalAlign=middle;resizable=0;points=[];" vertex="1" connectable="0" parent="7IFiCfjqwei8qDIe7Sz--34">
          <mxGeometry x="0.5586" y="-7" relative="1" as="geometry">
            <mxPoint as="offset" />
          </mxGeometry>
        </mxCell>
        <mxCell id="7IFiCfjqwei8qDIe7Sz--4" value="饭卡信息数据" style="shape=partialRectangle;whiteSpace=wrap;html=1;left=0;right=0;fillColor=none;" vertex="1" parent="1">
          <mxGeometry x="390" y="330" width="120" height="60" as="geometry" />
        </mxCell>
        <mxCell id="7IFiCfjqwei8qDIe7Sz--35" style="edgeStyle=orthogonalEdgeStyle;curved=1;rounded=0;orthogonalLoop=1;jettySize=auto;html=1;exitX=0.5;exitY=1;exitDx=0;exitDy=0;entryX=0.5;entryY=1;entryDx=0;entryDy=0;" edge="1" parent="1" source="7IFiCfjqwei8qDIe7Sz--7" target="7IFiCfjqwei8qDIe7Sz--33">
          <mxGeometry relative="1" as="geometry" />
        </mxCell>
        <mxCell id="7IFiCfjqwei8qDIe7Sz--37" value="挂失信息" style="edgeLabel;html=1;align=center;verticalAlign=middle;resizable=0;points=[];" vertex="1" connectable="0" parent="7IFiCfjqwei8qDIe7Sz--35">
          <mxGeometry x="0.5255" y="7" relative="1" as="geometry">
            <mxPoint as="offset" />
          </mxGeometry>
        </mxCell>
        <mxCell id="7IFiCfjqwei8qDIe7Sz--7" value="饭卡历史信息数据" style="shape=partialRectangle;whiteSpace=wrap;html=1;left=0;right=0;fillColor=none;" vertex="1" parent="1">
          <mxGeometry x="210" y="350" width="120" height="60" as="geometry" />
        </mxCell>
        <mxCell id="7IFiCfjqwei8qDIe7Sz--24" style="edgeStyle=orthogonalEdgeStyle;curved=1;rounded=0;orthogonalLoop=1;jettySize=auto;html=1;exitX=0.5;exitY=1;exitDx=0;exitDy=0;entryX=0.5;entryY=0;entryDx=0;entryDy=0;" edge="1" parent="1" source="7IFiCfjqwei8qDIe7Sz--20" target="7IFiCfjqwei8qDIe7Sz--7">
          <mxGeometry relative="1" as="geometry" />
        </mxCell>
        <mxCell id="7IFiCfjqwei8qDIe7Sz--25" value="添加挂失信息" style="edgeLabel;html=1;align=center;verticalAlign=middle;resizable=0;points=[];" vertex="1" connectable="0" parent="7IFiCfjqwei8qDIe7Sz--24">
          <mxGeometry x="-0.2" relative="1" as="geometry">
            <mxPoint as="offset" />
          </mxGeometry>
        </mxCell>
        <mxCell id="7IFiCfjqwei8qDIe7Sz--29" style="edgeStyle=orthogonalEdgeStyle;curved=1;rounded=0;orthogonalLoop=1;jettySize=auto;html=1;exitX=1;exitY=0.5;exitDx=0;exitDy=0;entryX=0;entryY=0.5;entryDx=0;entryDy=0;" edge="1" parent="1" source="7IFiCfjqwei8qDIe7Sz--20" target="7IFiCfjqwei8qDIe7Sz--28">
          <mxGeometry relative="1" as="geometry" />
        </mxCell>
        <mxCell id="7IFiCfjqwei8qDIe7Sz--30" value="饭卡信息" style="edgeLabel;html=1;align=center;verticalAlign=middle;resizable=0;points=[];" vertex="1" connectable="0" parent="7IFiCfjqwei8qDIe7Sz--29">
          <mxGeometry x="0.34" y="3" relative="1" as="geometry">
            <mxPoint as="offset" />
          </mxGeometry>
        </mxCell>
        <mxCell id="7IFiCfjqwei8qDIe7Sz--20" value="1.1&lt;br&gt;申请挂失" style="ellipse;whiteSpace=wrap;html=1;aspect=fixed;" vertex="1" parent="1">
          <mxGeometry x="230" y="170" width="80" height="80" as="geometry" />
        </mxCell>
        <mxCell id="7IFiCfjqwei8qDIe7Sz--31" style="edgeStyle=orthogonalEdgeStyle;curved=1;rounded=0;orthogonalLoop=1;jettySize=auto;html=1;exitX=1;exitY=1;exitDx=0;exitDy=0;entryX=0.5;entryY=0;entryDx=0;entryDy=0;" edge="1" parent="1" source="7IFiCfjqwei8qDIe7Sz--28" target="7IFiCfjqwei8qDIe7Sz--4">
          <mxGeometry relative="1" as="geometry" />
        </mxCell>
        <mxCell id="7IFiCfjqwei8qDIe7Sz--32" value="锁定账号信息" style="edgeLabel;html=1;align=center;verticalAlign=middle;resizable=0;points=[];" vertex="1" connectable="0" parent="7IFiCfjqwei8qDIe7Sz--31">
          <mxGeometry x="0.0001" y="-11" relative="1" as="geometry">
            <mxPoint as="offset" />
          </mxGeometry>
        </mxCell>
        <mxCell id="7IFiCfjqwei8qDIe7Sz--28" value="1.2&lt;br&gt;锁定账户" style="ellipse;whiteSpace=wrap;html=1;aspect=fixed;" vertex="1" parent="1">
          <mxGeometry x="400" y="160" width="80" height="80" as="geometry" />
        </mxCell>
        <mxCell id="7IFiCfjqwei8qDIe7Sz--33" value="管理员" style="rounded=0;whiteSpace=wrap;html=1;" vertex="1" parent="1">
          <mxGeometry x="670" y="335" width="90" height="50" as="geometry" />
        </mxCell>
      </root>
    </mxGraphModel>
  </diagram>
</mxfile>
